<?xml version="1.0" standalone="no"?>
<!DOCTYPE svg PUBLIC "-//W3C//DTD SVG 20010904//EN"
 "http://www.w3.org/TR/2001/REC-SVG-20010904/DTD/svg10.dtd">
<svg version="1.0" xmlns="http://www.w3.org/2000/svg"
 width="100.000000pt" height="100.000000pt" viewBox="0 0 100.000000 100.000000"
 preserveAspectRatio="xMidYMid meet">

<g transform="translate(0.000000,100.000000) scale(0.100000,-0.100000)"
fill="#000000" stroke="none">
<path d="M0 500 l0 -500 500 0 500 0 0 500 0 500 -500 0 -500 0 0 -500z m581
382 c14 -43 5 -87 -26 -128 -21 -27 -25 -44 -25 -96 0 -72 15 -64 26 15 11 81
66 127 154 127 l40 0 0 -52 c0 -87 -39 -134 -118 -145 -36 -5 -46 -12 -72 -53
-16 -26 -30 -55 -30 -65 0 -16 6 -13 33 13 30 29 35 31 53 18 18 -14 17 -17
-33 -68 -35 -35 -53 -62 -53 -78 0 -22 9 -15 75 50 58 58 75 81 75 103 0 71
54 117 140 117 l50 0 0 -50 c0 -90 -45 -140 -127 -140 -33 0 -46 -7 -88 -50
l-49 -50 40 0 c27 0 47 6 58 19 28 31 91 54 128 47 42 -8 108 -61 108 -87 0
-11 -18 -32 -42 -50 -38 -27 -49 -30 -94 -27 -35 3 -61 13 -86 31 -29 22 -45
27 -93 27 -40 0 -64 -5 -77 -17 -26 -24 -23 -58 7 -71 14 -7 34 -25 43 -42
l17 -30 103 0 102 0 0 -25 0 -25 -125 0 c-119 0 -125 1 -125 20 0 27 -43 70
-69 70 -23 0 -61 -44 -61 -71 0 -18 -10 -19 -125 -19 l-125 0 0 25 0 25 103 0
102 0 17 30 c9 17 29 35 43 42 29 13 33 43 8 70 -22 24 -144 26 -164 2 -51
-62 -155 -58 -218 10 l-25 26 34 35 c62 64 125 68 199 14 25 -18 53 -29 73
-29 l32 0 -49 50 c-41 42 -55 50 -86 50 -74 0 -127 62 -128 153 l-1 37 56 0
c35 0 67 -6 85 -17 33 -20 59 -68 59 -111 0 -24 14 -43 72 -98 58 -54 74 -65
76 -50 3 12 -16 39 -52 75 -53 54 -55 58 -39 74 16 16 19 15 55 -20 35 -34 38
-35 38 -15 0 12 -15 45 -32 72 -27 40 -38 50 -61 50 -44 0 -96 29 -114 63 -8
17 -16 54 -17 81 l-1 51 57 -1 c36 -1 67 -8 84 -18 29 -20 54 -72 54 -114 0
-15 7 -37 15 -48 13 -17 14 -13 15 47 0 49 -4 70 -16 80 -62 51 -55 166 14
220 l25 20 34 -32 c18 -18 38 -48 44 -67z m139 -822 c0 -19 -7 -20 -220 -20
-213 0 -220 1 -220 20 0 19 7 20 220 20 213 0 220 -1 220 -20z"/>
<path d="M476 875 c-15 -31 -15 -37 -1 -64 21 -41 31 -45 49 -19 20 29 20 67
0 96 -21 30 -29 28 -48 -13z"/>
<path d="M300 735 c0 -32 31 -75 58 -81 15 -3 33 -7 40 -10 16 -5 15 9 -2 51
-8 18 -23 38 -34 44 -30 16 -62 14 -62 -4z"/>
<path d="M636 728 c-14 -13 -28 -35 -32 -50 -5 -25 -3 -28 19 -28 33 0 74 37
83 73 5 24 3 27 -19 27 -14 0 -37 -10 -51 -22z"/>
<path d="M180 576 c0 -33 35 -73 71 -81 17 -4 32 -5 34 -3 3 2 0 21 -6 42 -8
29 -18 41 -44 52 -47 19 -55 18 -55 -10z"/>
<path d="M775 590 c-29 -11 -44 -32 -51 -68 -7 -35 -3 -37 46 -21 29 11 60 55
60 89 0 12 -26 12 -55 0z"/>
<path d="M146 351 l-29 -19 34 -21 c19 -12 39 -21 44 -21 12 0 75 38 75 45 0
8 -58 35 -77 35 -10 0 -31 -9 -47 -19z"/>
<path d="M763 353 c-31 -21 -29 -28 14 -48 35 -17 38 -17 70 0 39 21 41 29 11
49 -28 20 -66 20 -95 -1z"/>
</g>
</svg>
