<?xml version="1.0" encoding="UTF-8" standalone="no"?>
<svg width="90px" height="100px" viewBox="0 0 90 100" version="1.1" xmlns="http://www.w3.org/2000/svg" xmlns:xlink="http://www.w3.org/1999/xlink">
  <g
     transform="matrix(0.1,0,0,-0.1,-5.6000979,98.100098)"
     id="g18"
     style="fill:#69ca62;stroke:#69ca62">
    <path
       style="stroke-width:0.13333333"
       d="M 67.066406,2.5332031 63.732422,5.1992188 C 54.532422,12.399218 53.600515,27.733203 61.867188,34.533203 63.467187,35.866536 64,38.665886 64,45.199219 c -0.133333,7.999999 -0.266667,8.534244 -2,6.267578 -1.066667,-1.466667 -2,-4.400391 -2,-6.400391 0,-5.6 -3.332552,-12.532552 -7.199219,-15.199218 -2.266666,-1.33334 -6.401172,-2.267058 -11.201172,-2.400391 L 34,27.333984 l 0.132812,6.798828 c 0.13334,3.600006 1.200912,8.534115 2.267579,10.800782 2.4,4.533333 9.332552,8.40039 15.199218,8.40039 3.066667,0 4.532813,1.332683 8.132813,6.666016 C 61.999088,63.6 64,67.999609 64,69.599609 c 0,2.666667 -0.39974,2.533334 -5.066406,-2 -4.8,-4.666666 -5.200651,-4.799349 -7.333985,-2.666015 -2.133333,2.133333 -1.865494,2.667188 5.201172,9.867187 4.8,4.8 7.331641,8.4 6.931641,10 -0.266667,2 -2.39948,0.532037 -10.132813,-6.667969 C 45.866276,70.799479 44,68.266406 44,65.066406 44,59.333073 40.532818,52.934245 36.132812,50.267578 33.732813,48.800912 29.467448,48 24.800781,48 h -7.466797 l 0.132813,4.933594 c 0.133333,12.133333 7.19974,20.40039 17.066406,20.40039 C 38.666536,73.333984 40.533334,74.4 46,80 l 6.533203,6.666016 h -4.265625 c -2.666666,0 -6.401042,-1.465235 -9.734375,-3.865235 C 28.666537,75.600782 20.266666,76.132683 12,84.666016 l -4.5332031,4.667968 3.3339841,3.466797 c 8.4,9.066669 22.266401,9.598699 29.066407,1.332031 2.666666,-3.199999 18.931901,-2.932421 21.865234,0.267579 3.333333,3.599999 2.80026,7.598699 -1.066406,9.332029 -1.866667,0.93334 -4.532422,3.3349 -5.732422,5.60156 l -2.267578,4 H 39.066406 25.333984 V 116.66602 120 H 42 c 15.333333,0 16.666016,-0.1332 16.666016,-2.5332 0,-3.6 5.068099,-9.4668 8.134765,-9.4668 C 70.267448,108 76,113.73398 76,117.33398 76,119.86732 76.79935,120 92.666016,120 h 16.667964 v -3.33398 -3.33204 H 95.732422 82 l -2.267578,-4 C 78.532422,107.06732 75.866667,104.66576 74,103.73242 70,101.99909 69.59974,97.467578 73.066406,94.267578 74.79974,92.667578 78.000651,92 83.333984,92 c 6.4,0 8.531771,0.666276 12.398438,3.599609 3.333333,2.4 6.800128,3.732813 11.466798,4.132813 6,0.399998 7.46654,3.96e-4 12.5332,-3.59961 3.2,-2.399999 5.60156,-5.199349 5.60156,-6.666015 0,-3.466667 -8.80039,-10.532943 -14.40039,-11.599609 -4.93333,-0.93334 -13.333069,2.132291 -17.066402,6.265624 -1.466673,1.73334 -4.13437,2.533204 -7.734376,2.533204 H 80.800781 L 87.333984,80 c 5.6,-5.733333 7.332422,-6.666016 11.732422,-6.666016 C 109.99974,73.333984 116,66.666015 116,54.666016 V 48 h -6.66602 c -11.466638,0 -18.667964,6.132943 -18.667964,15.599609 0,2.933334 -2.266667,6.001042 -10,13.734375 -8.8,8.666667 -10,9.599349 -10,6.666016 0,-2.133333 2.399739,-5.733724 7.066406,-10.400391 6.666666,-6.799999 6.800396,-7.199739 4.40039,-9.066406 -2.399999,-1.733333 -3.066406,-1.466276 -7.066406,2.400391 -3.6,3.466666 -4.40039,3.865755 -4.40039,1.732422 0,-1.333334 1.866666,-5.199349 4,-8.666016 3.466666,-5.466666 4.801562,-6.39974 9.601562,-7.066406 C 94.800911,51.466927 100,45.199609 100,33.599609 v -6.933593 h -5.333984 c -11.733333,0 -19.066531,6.133594 -20.533204,16.933593 -1.466666,10.533333 -3.466796,11.6 -3.466796,2 0,-6.933333 0.533984,-9.198828 3.333984,-12.798828 4.133333,-5.466666 5.333463,-11.335026 3.466797,-17.068359 -0.8,-2.533333 -3.467188,-6.5316402 -5.867188,-8.9316408 z m -0.146484,9.6777349 c 0.829427,0.03851 1.722263,0.972656 2.947266,2.722656 2.666666,3.866666 2.666666,8.932161 0,12.798828 -2.400003,3.466666 -3.733204,2.933463 -6.533204,-2.533203 -1.866666,-3.6 -1.867187,-4.39987 0.132813,-8.533203 1.425,-3.075 2.386719,-4.504593 3.453125,-4.455078 z m 24.679687,21.123046 c 2.933334,0 3.199872,0.39961 2.533203,3.59961 -1.199999,4.8 -6.666406,9.732422 -11.066406,9.732422 -2.933333,0 -3.19987,-0.399089 -2.533203,-3.732422 0.533333,-2 2.400912,-4.932683 4.267578,-6.666016 1.866667,-1.6 4.932162,-2.933594 6.798828,-2.933594 z m -48.357421,0.02148 c 1.47246,0.03691 3.27539,0.511979 5.02539,1.445312 1.466667,0.8 3.466537,3.465235 4.533203,5.865235 2.266667,5.599999 2.398959,7.467448 0.265625,6.800781 -0.933333,-0.4 -3.333984,-0.933981 -5.333984,-1.333985 C 44.132422,45.332813 40,39.600651 40,35.333984 c 0,-1.35 1.34902,-2.025976 3.242188,-1.978515 z m 65.207032,20.111328 c 1.35,0 2.2168,0.399219 2.2168,1.199219 0,4.533333 -4.13334,10.400521 -8,11.867187 -6.533341,2.133333 -7.06615,1.865885 -6.132817,-2.800781 0.933333,-4.8 2.934119,-7.59974 6.800777,-9.066406 1.93334,-0.8 3.76524,-1.199219 5.11524,-1.199219 z m -82.701173,0.01758 c 1.097168,0.0093 2.844271,0.60651 5.585937,1.714844 3.466667,1.466666 4.798568,3.066927 5.865235,6.933593 0.8,2.800005 1.200781,5.332943 0.800781,5.59961 -0.266667,0.266667 -2.266537,0.134896 -4.533203,-0.398438 C 28.666797,66.267318 24,60.933203 24,56.533203 c 0,-2.1 0.337402,-3.06084 1.748047,-3.048828 z M 25.732422,84 C 28.265755,84 36,87.599349 36,88.666016 c 0,0.933333 -8.4,6 -10,6 -0.666667,0 -3.333848,-1.198829 -5.867188,-2.798828 l -4.533203,-2.800782 3.867188,-2.533203 C 21.60013,85.19987 24.399089,84 25.732422,84 Z m 82.384768,0.150391 c 2.21666,-0.01667 4.41653,0.649088 6.2832,1.982421 4,2.666667 3.7332,3.733204 -1.4668,6.533204 -4.26666,2.266666 -4.66731,2.266666 -9.33398,0 -5.733334,-2.666667 -6.000521,-3.598438 -1.86719,-6.398438 1.93334,-1.4 4.1681,-2.100521 6.38477,-2.117187 z"
       id="path3733"
       transform="matrix(7.5000003,0,0,-7.5000003,0,1000)"
       />
    <path
       d="m 720,60 c 0,-19 -7,-20 -220,-20 -213,0 -220,1 -220,20 0,19 7,20 220,20 213,0 220,-1 220,-20 z"
       id="path2"
        />
  </g>
</svg>
